<?xml version="1.0" encoding="UTF-8" standalone="no"?>
<!-- Created with Inkscape (http://www.inkscape.org/) -->

<svg
   xmlns:dc="http://purl.org/dc/elements/1.1/"
   xmlns:cc="http://creativecommons.org/ns#"
   xmlns:rdf="http://www.w3.org/1999/02/22-rdf-syntax-ns#"
   xmlns:svg="http://www.w3.org/2000/svg"
   xmlns="http://www.w3.org/2000/svg"
   xmlns:sodipodi="http://sodipodi.sourceforge.net/DTD/sodipodi-0.dtd"
   xmlns:inkscape="http://www.inkscape.org/namespaces/inkscape"
   width="336.42706"
   height="156.50658"
   id="svg4174"
   version="1.1"
   inkscape:version="0.48.0 r9654"
   sodipodi:docname="New document 3">
  <defs
     id="defs4176" />
  <sodipodi:namedview
     id="base"
     pagecolor="#ffffff"
     bordercolor="#666666"
     borderopacity="1.0"
     inkscape:pageopacity="0.0"
     inkscape:pageshadow="2"
     inkscape:zoom="2.0967053"
     inkscape:cx="168.36308"
     inkscape:cy="70.024825"
     inkscape:document-units="px"
     inkscape:current-layer="layer1"
     showgrid="false"
     fit-margin-top="0"
     fit-margin-left="0"
     fit-margin-right="0"
     fit-margin-bottom="0"
     inkscape:window-width="1366"
     inkscape:window-height="716"
     inkscape:window-x="-8"
     inkscape:window-y="-8"
     inkscape:window-maximized="1" />
  <metadata
     id="metadata4179">
    <rdf:RDF>
      <cc:Work
         rdf:about="">
        <dc:format>image/svg+xml</dc:format>
        <dc:type
           rdf:resource="http://purl.org/dc/dcmitype/StillImage" />
        <dc:title></dc:title>
      </cc:Work>
    </rdf:RDF>
  </metadata>
  <g
     inkscape:label="Layer 1"
     inkscape:groupmode="layer"
     id="layer1"
     transform="translate(-243.21505,-300.01703)">
    <path
       inkscape:connector-curvature="0"
       d="m 260.56708,378.97206 124.54455,0 0,-2.98418 -124.54455,0 0,2.98418 z"
       style="fill:#231f20;fill-opacity:1;fill-rule:evenodd;stroke:none"
       id="path286" />
    <path
       inkscape:connector-curvature="0"
       d="m 260.56708,378.97206 124.54455,0 0,-2.98418 -124.54455,0 0,2.98418 z"
       style="fill:none;stroke:#231f20;stroke-width:0.20408849;stroke-linecap:butt;stroke-linejoin:miter;stroke-miterlimit:2.61310005;stroke-opacity:1;stroke-dasharray:none"
       id="path288" />
    <path
       inkscape:connector-curvature="0"
       d="m 343.73008,391.40556 0,-14.424"
       style="fill:none;stroke:#231f20;stroke-width:1.889835;stroke-linecap:butt;stroke-linejoin:miter;stroke-miterlimit:2.61310005;stroke-opacity:1;stroke-dasharray:none"
       id="path290" />
    <path
       inkscape:connector-curvature="0"
       d="m 243.81359,394.88856 158.65949,0 0,-15.91575 -158.65949,0 0,15.91575 z"
       style="fill:#e9e9e9;fill-opacity:1;fill-rule:evenodd;stroke:none"
       id="path292" />
    <path
       inkscape:connector-curvature="0"
       d="m 243.81359,394.88856 158.65949,0 0,-15.91575 -158.65949,0 0,15.91575 z"
       style="fill:none;stroke:#231f20;stroke-width:0.20408849;stroke-linecap:butt;stroke-linejoin:miter;stroke-miterlimit:2.61310005;stroke-opacity:1;stroke-dasharray:none"
       id="path294" />
    <path
       inkscape:connector-curvature="0"
       d="m 352.73758,410.80356 2.48672,0 0,-14.42345 -2.48672,0 0,14.42345 z"
       style="fill:#231f20;fill-opacity:1;fill-rule:evenodd;stroke:none"
       id="path296" />
    <path
       inkscape:connector-curvature="0"
       d="m 352.73758,410.80356 2.48672,0 0,-14.42345 -2.48672,0 0,14.42345 z"
       style="fill:none;stroke:#231f20;stroke-width:0.20408849;stroke-linecap:butt;stroke-linejoin:miter;stroke-miterlimit:2.61310005;stroke-opacity:1;stroke-dasharray:none"
       id="path298" />
    <path
       inkscape:connector-curvature="0"
       d="m 331.34758,399.86106 17.90565,0 0,-3.97851 -17.90565,0 0,3.97851 z"
       style="fill:#918f90;fill-opacity:1;fill-rule:evenodd;stroke:none"
       id="path300" />
    <path
       inkscape:connector-curvature="0"
       d="m 331.34758,399.86106 17.90565,0 0,-3.97851 -17.90565,0 0,3.97851 z"
       style="fill:none;stroke:#231f20;stroke-width:0.20408849;stroke-linecap:butt;stroke-linejoin:miter;stroke-miterlimit:2.61310005;stroke-opacity:1;stroke-dasharray:none"
       id="path302" />
    <path
       inkscape:connector-curvature="0"
       d="m 336.81958,408.31656 8.45508,0 0,-8.45567 -8.45508,0 0,8.45567 z"
       style="fill:#918f90;fill-opacity:1;fill-rule:evenodd;stroke:none"
       id="path304" />
    <path
       inkscape:connector-curvature="0"
       d="m 336.81958,408.31656 8.45508,0 0,-8.45567 -8.45508,0 0,8.45567 z"
       style="fill:none;stroke:#231f20;stroke-width:0.20408849;stroke-linecap:butt;stroke-linejoin:miter;stroke-miterlimit:2.61310005;stroke-opacity:1;stroke-dasharray:none"
       id="path306" />
    <path
       inkscape:connector-curvature="0"
       d="m 292.05808,396.87756 62.17035,0 0,-2.98418 -62.17035,0 0,2.98418 z"
       style="fill:#231f20;fill-opacity:1;fill-rule:evenodd;stroke:none"
       id="path308" />
    <path
       inkscape:connector-curvature="0"
       d="m 292.05808,396.87756 62.17035,0 0,-2.98418 -62.17035,0 0,2.98418 z"
       style="fill:none;stroke:#231f20;stroke-width:0.20408849;stroke-linecap:butt;stroke-linejoin:miter;stroke-miterlimit:2.61310005;stroke-opacity:1;stroke-dasharray:none"
       id="path310" />
    <path
       inkscape:connector-curvature="0"
       d="m 340.74508,394.39056 0,-16.911"
       style="fill:none;stroke:#231f20;stroke-width:1.889835;stroke-linecap:butt;stroke-linejoin:miter;stroke-miterlimit:2.61310005;stroke-opacity:1;stroke-dasharray:none"
       id="path312" />
    <path
       inkscape:connector-curvature="0"
       d="m 243.75809,411.82356 48.27014,0 0,-16.91955 -48.27014,0 0,16.91955 z"
       style="fill:#e9e9e9;fill-opacity:1;fill-rule:evenodd;stroke:none"
       id="path314" />
    <path
       inkscape:connector-curvature="0"
       d="m 243.75809,411.82356 48.27014,0 0,-16.91955 -48.27014,0 0,16.91955 z"
       style="fill:none;stroke:#231f20;stroke-width:0.20408849;stroke-linecap:butt;stroke-linejoin:miter;stroke-miterlimit:2.61310005;stroke-opacity:1;stroke-dasharray:none"
       id="path316" />
    <path
       inkscape:connector-curvature="0"
       d="m 355.22758,411.75606 47.2752,0 0,-16.91955 -47.2752,0 0,16.91955 z"
       style="fill:#e9e9e9;fill-opacity:1;fill-rule:evenodd;stroke:none"
       id="path318" />
    <path
       inkscape:connector-curvature="0"
       d="m 355.22758,411.75606 47.2752,0 0,-16.91955 -47.2752,0 0,16.91955 z"
       style="fill:none;stroke:#231f20;stroke-width:0.20408849;stroke-linecap:butt;stroke-linejoin:miter;stroke-miterlimit:2.61310005;stroke-opacity:1;stroke-dasharray:none"
       id="path320" />
    <path
       inkscape:connector-curvature="0"
       d="m 243.31709,413.29056 50.23364,0 0,-2.98418 -50.23364,0 0,2.98418 z"
       style="fill:#231f20;fill-opacity:1;fill-rule:evenodd;stroke:none"
       id="path322" />
    <path
       inkscape:connector-curvature="0"
       d="m 243.31709,413.29056 50.23364,0 0,-2.98418 -50.23364,0 0,2.98418 z"
       style="fill:none;stroke:#231f20;stroke-width:0.20408849;stroke-linecap:butt;stroke-linejoin:miter;stroke-miterlimit:2.61310005;stroke-opacity:1;stroke-dasharray:none"
       id="path324" />
    <path
       inkscape:connector-curvature="0"
       d="m 352.73758,413.78856 50.23365,0 0,-2.98418 -50.23365,0 0,2.98418 z"
       style="fill:#231f20;fill-opacity:1;fill-rule:evenodd;stroke:none"
       id="path326" />
    <path
       inkscape:connector-curvature="0"
       d="m 352.73758,413.78856 50.23365,0 0,-2.98418 -50.23365,0 0,2.98418 z"
       style="fill:none;stroke:#231f20;stroke-width:0.20408849;stroke-linecap:butt;stroke-linejoin:miter;stroke-miterlimit:2.61310005;stroke-opacity:1;stroke-dasharray:none"
       id="path328" />
    <path
       inkscape:connector-curvature="0"
       d="m 369.07558,417.27606 17.90505,0 0,-3.9791 -17.90505,0 0,3.9791 z"
       style="fill:#918f90;fill-opacity:1;fill-rule:evenodd;stroke:none"
       id="path330" />
    <path
       inkscape:connector-curvature="0"
       d="m 369.07558,417.27606 17.90505,0 0,-3.9791 -17.90505,0 0,3.9791 z"
       style="fill:none;stroke:#231f20;stroke-width:0.20408849;stroke-linecap:butt;stroke-linejoin:miter;stroke-miterlimit:2.61310005;stroke-opacity:1;stroke-dasharray:none"
       id="path332" />
    <path
       inkscape:connector-curvature="0"
       d="m 374.54758,425.73156 8.45508,0 0,-8.45508 -8.45508,0 0,8.45508 z"
       style="fill:#918f90;fill-opacity:1;fill-rule:evenodd;stroke:none"
       id="path334" />
    <path
       inkscape:connector-curvature="0"
       d="m 374.54758,425.73156 8.45508,0 0,-8.45508 -8.45508,0 0,8.45508 z"
       style="fill:none;stroke:#231f20;stroke-width:0.20408849;stroke-linecap:butt;stroke-linejoin:miter;stroke-miterlimit:2.61310005;stroke-opacity:1;stroke-dasharray:none"
       id="path336" />
    <path
       inkscape:connector-curvature="0"
       d="m 251.77259,396.87756 41.77844,0 0,-2.98418 -41.77844,0 0,2.98418 z"
       style="fill:#231f20;fill-opacity:1;fill-rule:evenodd;stroke:none"
       id="path338" />
    <path
       inkscape:connector-curvature="0"
       d="m 251.77259,396.87756 41.77844,0 0,-2.98418 -41.77844,0 0,2.98418 z"
       style="fill:none;stroke:#231f20;stroke-width:0.20408849;stroke-linecap:butt;stroke-linejoin:miter;stroke-miterlimit:2.61310005;stroke-opacity:1;stroke-dasharray:none"
       id="path340" />
    <path
       inkscape:connector-curvature="0"
       d="m 352.73758,396.87756 41.77845,0 0,-2.98418 -41.77845,0 0,2.98418 z"
       style="fill:#231f20;fill-opacity:1;fill-rule:evenodd;stroke:none"
       id="path342" />
    <path
       inkscape:connector-curvature="0"
       d="m 352.73758,396.87756 41.77845,0 0,-2.98418 -41.77845,0 0,2.98418 z"
       style="fill:none;stroke:#231f20;stroke-width:0.20408849;stroke-linecap:butt;stroke-linejoin:miter;stroke-miterlimit:2.61310005;stroke-opacity:1;stroke-dasharray:none"
       id="path344" />
    <path
       inkscape:connector-curvature="0"
       d="m 291.06358,410.71056 2.48672,0 0,-13.83282 -2.48672,0 0,13.83282 z"
       style="fill:#231f20;fill-opacity:1;fill-rule:evenodd;stroke:none"
       id="path346" />
    <path
       inkscape:connector-curvature="0"
       d="m 291.06358,410.71056 2.48672,0 0,-13.83282 -2.48672,0 0,13.83282 z"
       style="fill:none;stroke:#231f20;stroke-width:0.20408849;stroke-linecap:butt;stroke-linejoin:miter;stroke-miterlimit:2.61310005;stroke-opacity:1;stroke-dasharray:none"
       id="path348" />
    <path
       inkscape:connector-curvature="0"
       d="m 377.60458,410.80356 0,-14.424"
       style="fill:none;stroke:#231f20;stroke-width:1.889835;stroke-linecap:butt;stroke-linejoin:miter;stroke-miterlimit:2.61310005;stroke-opacity:1;stroke-dasharray:none"
       id="path350" />
    <path
       inkscape:connector-curvature="0"
       d="m 322.68508,362.55756 60.7815,0"
       style="fill:none;stroke:#231f20;stroke-width:0.20408849;stroke-linecap:butt;stroke-linejoin:miter;stroke-miterlimit:2.61310005;stroke-opacity:1;stroke-dasharray:none"
       id="path352" />
    <path
       inkscape:connector-curvature="0"
       d="m 325.70458,360.12006 -3.7575,2.4375 3.7575,2.4375"
       style="fill:none;stroke:#231f20;stroke-width:0.95241153;stroke-linecap:butt;stroke-linejoin:miter;stroke-miterlimit:2.61310005;stroke-opacity:1;stroke-dasharray:none"
       id="path354" />
    <path
       inkscape:connector-curvature="0"
       d="m 380.44708,360.12006 3.759,2.4375 -3.759,2.4375"
       style="fill:none;stroke:#231f20;stroke-width:0.95241153;stroke-linecap:butt;stroke-linejoin:miter;stroke-miterlimit:2.61310005;stroke-opacity:1;stroke-dasharray:none"
       id="path356" />
    <path
       inkscape:connector-curvature="0"
       d="m 323.96608,438.92856 52.0035,0"
       style="fill:none;stroke:#231f20;stroke-width:0.20408849;stroke-linecap:butt;stroke-linejoin:miter;stroke-miterlimit:2.61310005;stroke-opacity:1;stroke-dasharray:none"
       id="path358" />
    <path
       inkscape:connector-curvature="0"
       d="m 326.98558,436.49256 -3.759,2.436 3.759,2.439"
       style="fill:none;stroke:#231f20;stroke-width:0.95241153;stroke-linecap:butt;stroke-linejoin:miter;stroke-miterlimit:2.61310005;stroke-opacity:1;stroke-dasharray:none"
       id="path360" />
    <path
       inkscape:connector-curvature="0"
       d="m 372.95008,436.49256 3.7575,2.436 -3.7575,2.439"
       style="fill:none;stroke:#231f20;stroke-width:0.95241153;stroke-linecap:butt;stroke-linejoin:miter;stroke-miterlimit:2.61310005;stroke-opacity:1;stroke-dasharray:none"
       id="path362" />
    <path
       inkscape:connector-curvature="0"
       d="m 323.11258,448.74156 69.567,0"
       style="fill:none;stroke:#231f20;stroke-width:0.20408849;stroke-linecap:butt;stroke-linejoin:miter;stroke-miterlimit:2.61310005;stroke-opacity:1;stroke-dasharray:none"
       id="path364" />
    <path
       inkscape:connector-curvature="0"
       d="m 326.13208,446.30556 -3.759,2.436 3.759,2.439"
       style="fill:none;stroke:#231f20;stroke-width:0.95241153;stroke-linecap:butt;stroke-linejoin:miter;stroke-miterlimit:2.61310005;stroke-opacity:1;stroke-dasharray:none"
       id="path366" />
    <path
       inkscape:connector-curvature="0"
       d="m 389.66008,446.30556 3.7575,2.436 -3.7575,2.439"
       style="fill:none;stroke:#231f20;stroke-width:0.95241153;stroke-linecap:butt;stroke-linejoin:miter;stroke-miterlimit:2.61310005;stroke-opacity:1;stroke-dasharray:none"
       id="path368" />
    <path
       inkscape:connector-curvature="0"
       d="m 324.39208,429.96906 30.243,0"
       style="fill:none;stroke:#231f20;stroke-width:0.20408849;stroke-linecap:butt;stroke-linejoin:miter;stroke-miterlimit:2.61310005;stroke-opacity:1;stroke-dasharray:none"
       id="path370" />
    <path
       inkscape:connector-curvature="0"
       d="m 327.41158,427.53306 -3.7575,2.436 3.7575,2.4375"
       style="fill:none;stroke:#231f20;stroke-width:0.95241153;stroke-linecap:butt;stroke-linejoin:miter;stroke-miterlimit:2.61310005;stroke-opacity:1;stroke-dasharray:none"
       id="path372" />
    <path
       inkscape:connector-curvature="0"
       d="m 351.61708,427.53306 3.7575,2.436 -3.7575,2.4375"
       style="fill:none;stroke:#231f20;stroke-width:0.95241153;stroke-linecap:butt;stroke-linejoin:miter;stroke-miterlimit:2.61310005;stroke-opacity:1;stroke-dasharray:none"
       id="path374" />
    <path
       inkscape:connector-curvature="0"
       d="m 322.68508,355.30356 16.2645,0"
       style="fill:none;stroke:#231f20;stroke-width:0.20408849;stroke-linecap:butt;stroke-linejoin:miter;stroke-miterlimit:2.61310005;stroke-opacity:1;stroke-dasharray:none"
       id="path376" />
    <path
       inkscape:connector-curvature="0"
       d="m 325.70458,352.86756 -3.7575,2.436 3.7575,2.439"
       style="fill:none;stroke:#231f20;stroke-width:0.95241153;stroke-linecap:butt;stroke-linejoin:miter;stroke-miterlimit:2.61310005;stroke-opacity:1;stroke-dasharray:none"
       id="path378" />
    <path
       inkscape:connector-curvature="0"
       d="m 335.93008,352.86756 3.7575,2.436 -3.7575,2.439"
       style="fill:none;stroke:#231f20;stroke-width:0.95241153;stroke-linecap:butt;stroke-linejoin:miter;stroke-miterlimit:2.61310005;stroke-opacity:1;stroke-dasharray:none"
       id="path380" />
    <path
       inkscape:connector-curvature="0"
       d="m 321.80758,337.81056 0,118.611"
       style="fill:none;stroke:#231f20;stroke-width:0.20408849;stroke-linecap:butt;stroke-linejoin:miter;stroke-miterlimit:2.61310005;stroke-opacity:1;stroke-dasharray:2.040885, 1.020441;stroke-dashoffset:0"
       id="path382" />
    <path
       inkscape:connector-curvature="0"
       d="m 340.56808,338.92806 0,52.8585"
       style="fill:none;stroke:#231f20;stroke-width:0.20408849;stroke-linecap:butt;stroke-linejoin:miter;stroke-miterlimit:2.61310005;stroke-opacity:1;stroke-dasharray:2.040885, 1.020441;stroke-dashoffset:0"
       id="path384" />
    <path
       inkscape:connector-curvature="0"
       d="m 384.24358,339.27006 1.0245,38.868"
       style="fill:none;stroke:#231f20;stroke-width:0.20408849;stroke-linecap:butt;stroke-linejoin:miter;stroke-miterlimit:2.61310005;stroke-opacity:1;stroke-dasharray:2.040885, 1.020441;stroke-dashoffset:0"
       id="path386" />
    <path
       inkscape:connector-curvature="0"
       d="m 354.55858,395.57106 0,36.1695"
       style="fill:none;stroke:#231f20;stroke-width:0.20408849;stroke-linecap:butt;stroke-linejoin:miter;stroke-miterlimit:2.61310005;stroke-opacity:1;stroke-dasharray:2.040885, 1.020441;stroke-dashoffset:0"
       id="path388" />
    <path
       inkscape:connector-curvature="0"
       d="m 378.10258,403.75956 0,38.217"
       style="fill:none;stroke:#231f20;stroke-width:0.20408849;stroke-linecap:butt;stroke-linejoin:miter;stroke-miterlimit:2.61310005;stroke-opacity:1;stroke-dasharray:2.040885, 1.020441;stroke-dashoffset:0"
       id="path390" />
    <path
       inkscape:connector-curvature="0"
       d="m 394.82158,395.91156 0,53.2305"
       style="fill:none;stroke:#231f20;stroke-width:0.20408849;stroke-linecap:butt;stroke-linejoin:miter;stroke-miterlimit:2.61310005;stroke-opacity:1;stroke-dasharray:2.040885, 1.020441;stroke-dashoffset:0"
       id="path392" />
    <g
       id="g394"
       transform="matrix(1.2499995,0,0,-1.2499995,-151.54292,1175.1616)">
      <text
         transform="matrix(1,0,0,-1,387.286,598.013)"
         id="text396">
        <tspan
           style="font-size:4.53528976px;font-variant:normal;font-weight:normal;writing-mode:lr-tb;fill:#231f20;fill-opacity:1;fill-rule:nonzero;stroke:none;font-family:Times New Roman;-inkscape-font-specification:TimesNewRoman"
           x="0 2.2676449 4.5352898 8.0637455"
           y="0"
           sodipodi:role="line"
           id="tspan398">12mm</tspan>
        <tspan
           style="font-size:4.53528976px;font-variant:normal;font-weight:normal;writing-mode:lr-tb;fill:#231f20;fill-opacity:1;fill-rule:nonzero;stroke:none;font-family:Times New Roman;-inkscape-font-specification:TimesNewRoman"
           x="0 2.2676449 4.5352898 8.0637455"
           y="8.1895304"
           sodipodi:role="line"
           id="tspan400">23mm</tspan>
        <tspan
           style="font-size:4.53528976px;font-variant:normal;font-weight:normal;writing-mode:lr-tb;fill:#231f20;fill-opacity:1;fill-rule:nonzero;stroke:none;font-family:Times New Roman;-inkscape-font-specification:TimesNewRoman"
           x="-0.0529688 2.2146761 4.4823213 8.0107765"
           y="16.273121"
           sodipodi:role="line"
           id="tspan402">28mm</tspan>
        <tspan
           style="font-size:4.53528976px;font-variant:normal;font-weight:normal;writing-mode:lr-tb;fill:#231f20;fill-opacity:1;fill-rule:nonzero;stroke:none;font-family:Times New Roman;-inkscape-font-specification:TimesNewRoman"
           x="-6.0051589 -3.7375138 -0.20905818"
           y="-61.14608"
           sodipodi:role="line"
           id="tspan404">7mm</tspan>
        <tspan
           style="font-size:4.53528976px;font-variant:normal;font-weight:normal;writing-mode:lr-tb;fill:#231f20;fill-opacity:1;fill-rule:nonzero;stroke:none;font-family:Times New Roman;-inkscape-font-specification:TimesNewRoman"
           x="-5.7323456 -3.4647007 -1.1970558 -0.063233301 2.2044117 5.7328672"
           y="-52.6842"
           sodipodi:role="line"
           id="tspan406">25.5mm</tspan>
      </text>
    </g>
    <path
       inkscape:connector-curvature="0"
       d="m 483.73258,331.28106 c 33.744,0 61.2645,27.522 61.2645,61.2645 0,33.744 -27.5205,61.2645 -61.2645,61.2645 -33.7425,0 -61.263,-27.5205 -61.263,-61.2645 0,-33.7425 27.5205,-61.2645 61.263,-61.2645"
       style="fill:#e9e9e9;fill-opacity:1;fill-rule:evenodd;stroke:none"
       id="path414" />
    <path
       inkscape:connector-curvature="0"
       d="m 483.73258,331.28106 c 33.744,0 61.2645,27.522 61.2645,61.2645 0,33.744 -27.5205,61.2645 -61.2645,61.2645 -33.7425,0 -61.263,-27.5205 -61.263,-61.2645 0,-33.7425 27.5205,-61.2645 61.263,-61.2645 z"
       style="fill:none;stroke:#656263;stroke-width:0.14701276;stroke-linecap:butt;stroke-linejoin:miter;stroke-miterlimit:2.61310005;stroke-opacity:1;stroke-dasharray:0.2940255, 0.14701275;stroke-dashoffset:0"
       id="path416" />
    <path
       inkscape:connector-curvature="0"
       d="m 483.73258,340.59606 c 28.8105,0 52.308,23.4975 52.308,52.308 0,28.8105 -23.4975,52.3065 -52.308,52.3065 -28.809,0 -52.3065,-23.496 -52.3065,-52.3065 0,-28.8105 23.4975,-52.308 52.3065,-52.308"
       style="fill:#bdbcbc;fill-opacity:1;fill-rule:evenodd;stroke:none"
       id="path418" />
    <path
       inkscape:connector-curvature="0"
       d="m 483.73258,340.59606 c 28.8105,0 52.308,23.4975 52.308,52.308 0,28.8105 -23.4975,52.3065 -52.308,52.3065 -28.809,0 -52.3065,-23.496 -52.3065,-52.3065 0,-28.8105 23.4975,-52.308 52.3065,-52.308 z"
       style="fill:none;stroke:#231f20;stroke-width:1.36131752;stroke-linecap:butt;stroke-linejoin:miter;stroke-miterlimit:2.61310005;stroke-opacity:1;stroke-dasharray:none"
       id="path420" />
    <path
       inkscape:connector-curvature="0"
       d="m 484.09108,355.64406 c 20.9175,0 37.977,17.0595 37.977,37.977 0,20.916 -17.0595,37.9755 -37.977,37.9755 -20.916,0 -37.977,-17.0595 -37.977,-37.9755 0,-20.9175 17.061,-37.977 37.977,-37.977"
       style="fill:#bdbcbc;fill-opacity:1;fill-rule:evenodd;stroke:none"
       id="path422" />
    <path
       inkscape:connector-curvature="0"
       d="m 484.09108,355.64406 c 20.9175,0 37.977,17.0595 37.977,37.977 0,20.916 -17.0595,37.9755 -37.977,37.9755 -20.916,0 -37.977,-17.0595 -37.977,-37.9755 0,-20.9175 17.061,-37.977 37.977,-37.977 z"
       style="fill:none;stroke:#231f20;stroke-width:1.36131752;stroke-linecap:butt;stroke-linejoin:miter;stroke-miterlimit:2.61310005;stroke-opacity:1;stroke-dasharray:none"
       id="path424" />
    <path
       inkscape:connector-curvature="0"
       d="m 484.44958,373.19856 c 11.445,0 20.7795,9.3345 20.7795,20.7795 0,11.445 -9.3345,20.7795 -20.7795,20.7795 -11.445,0 -20.7795,-9.3345 -20.7795,-20.7795 0,-11.445 9.3345,-20.7795 20.7795,-20.7795 z"
       style="fill:none;stroke:#4f4c4c;stroke-width:1.36131752;stroke-linecap:butt;stroke-linejoin:miter;stroke-miterlimit:2.61310005;stroke-opacity:1;stroke-dasharray:1.3613175, 1.3613175;stroke-dashoffset:0"
       id="path426" />
    <path
       inkscape:connector-curvature="0"
       d="m 496.81108,393.26256 c 0.69,0 1.2525,0.5625 1.2525,1.254 0,0.69 -0.5625,1.2525 -1.2525,1.2525 -0.6915,0 -1.2555,-0.5625 -1.2555,-1.2525 0,-0.6915 0.564,-1.254 1.2555,-1.254"
       style="fill:#231f20;fill-opacity:1;fill-rule:evenodd;stroke:none"
       id="path428" />
    <path
       inkscape:connector-curvature="0"
       d="m 496.81108,393.26256 c 0.69,0 1.2525,0.5625 1.2525,1.254 0,0.69 -0.5625,1.2525 -1.2525,1.2525 -0.6915,0 -1.2555,-0.5625 -1.2555,-1.2525 0,-0.6915 0.564,-1.254 1.2555,-1.254 z"
       style="fill:none;stroke:#231f20;stroke-width:0.14701276;stroke-linecap:butt;stroke-linejoin:miter;stroke-miterlimit:2.61310005;stroke-opacity:1;stroke-dasharray:none"
       id="path430" />
    <path
       inkscape:connector-curvature="0"
       d="m 513.29008,392.54556 c 0.6915,0 1.254,0.564 1.254,1.254 0,0.69 -0.5625,1.254 -1.254,1.254 -0.69,0 -1.254,-0.564 -1.254,-1.254 0,-0.69 0.564,-1.254 1.254,-1.254"
       style="fill:#231f20;fill-opacity:1;fill-rule:evenodd;stroke:none"
       id="path432" />
    <path
       inkscape:connector-curvature="0"
       d="m 513.29008,392.54556 c 0.6915,0 1.254,0.564 1.254,1.254 0,0.69 -0.5625,1.254 -1.254,1.254 -0.69,0 -1.254,-0.564 -1.254,-1.254 0,-0.69 0.564,-1.254 1.254,-1.254 z"
       style="fill:none;stroke:#231f20;stroke-width:0.14701276;stroke-linecap:butt;stroke-linejoin:miter;stroke-miterlimit:2.61310005;stroke-opacity:1;stroke-dasharray:none"
       id="path434" />
    <path
       inkscape:connector-curvature="0"
       d="m 485.17708,394.30656 93.5895,0"
       style="fill:none;stroke:#231f20;stroke-width:0.419238;stroke-linecap:butt;stroke-linejoin:miter;stroke-miterlimit:2.61310005;stroke-opacity:1;stroke-dasharray:none"
       id="path436" />
    <path
       inkscape:connector-curvature="0"
       d="m 576.59158,392.55306 2.7075,1.7535 -2.7075,1.758"
       style="fill:none;stroke:#231f20;stroke-width:0.68605947;stroke-linecap:butt;stroke-linejoin:miter;stroke-miterlimit:2.61310005;stroke-opacity:1;stroke-dasharray:none"
       id="path438" />
    <path
       inkscape:connector-curvature="0"
       d="m 485.00308,394.48206 0,-93.5895"
       style="fill:none;stroke:#231f20;stroke-width:0.419238;stroke-linecap:butt;stroke-linejoin:miter;stroke-miterlimit:2.61310005;stroke-opacity:1;stroke-dasharray:none"
       id="path440" />
    <path
       inkscape:connector-curvature="0"
       d="m 483.24808,303.06756 1.755,-2.7075 1.7565,2.7075"
       style="fill:none;stroke:#231f20;stroke-width:0.68605947;stroke-linecap:butt;stroke-linejoin:miter;stroke-miterlimit:2.61310005;stroke-opacity:1;stroke-dasharray:none"
       id="path442" />
    <g
       id="g444"
       transform="matrix(1.2499995,0,0,-1.2499995,-151.54292,1175.1616)">
      <text
         transform="matrix(1,0,0,-1,577.745,626.078)"
         id="text446">
        <tspan
           style="font-size:5.44485998px;font-variant:normal;font-weight:normal;writing-mode:lr-tb;fill:#231f20;fill-opacity:1;fill-rule:nonzero;stroke:none;font-family:Arial;-inkscape-font-specification:Arial"
           x="0"
           y="0"
           id="tspan448">x</tspan>
        <tspan
           style="font-size:5.44485998px;font-variant:normal;font-weight:normal;writing-mode:lr-tb;fill:#231f20;fill-opacity:1;fill-rule:nonzero;stroke:none;font-family:Arial;-inkscape-font-specification:Arial"
           x="-66.135902"
           y="-67.251999"
           id="tspan450">y</tspan>
      </text>
    </g>
  </g>
</svg>
