<?xml version="1.0" encoding="UTF-8" standalone="no"?>
<!-- Created with Inkscape (http://www.inkscape.org/) -->

<svg
   xmlns:dc="http://purl.org/dc/elements/1.1/"
   xmlns:cc="http://creativecommons.org/ns#"
   xmlns:rdf="http://www.w3.org/1999/02/22-rdf-syntax-ns#"
   xmlns:svg="http://www.w3.org/2000/svg"
   xmlns="http://www.w3.org/2000/svg"
   xmlns:sodipodi="http://sodipodi.sourceforge.net/DTD/sodipodi-0.dtd"
   xmlns:inkscape="http://www.inkscape.org/namespaces/inkscape"
   width="253.19653"
   height="210.75551"
   id="svg5512"
   version="1.1"
   inkscape:version="0.48.0 r9654"
   sodipodi:docname="New document 6">
  <defs
     id="defs5514">
    <clipPath
       clipPathUnits="userSpaceOnUse"
       id="clipPath4646">
      <path
         inkscape:connector-curvature="0"
         d="m 1808.06,6052.35 0,-124.3 301.95,0 0,124.3 -301.95,0 z"
         id="path4648" />
    </clipPath>
    <clipPath
       clipPathUnits="userSpaceOnUse"
       id="clipPath4624">
      <path
         inkscape:connector-curvature="0"
         d="m 411.277,6157.27 0,-1449.24 1713.333,0 0,1449.24 -1713.333,0 z"
         id="path4626" />
    </clipPath>
    <clipPath
       clipPathUnits="userSpaceOnUse"
       id="clipPath4614">
      <path
         inkscape:connector-curvature="0"
         d="m 1808.06,6052.35 0,-124.3 301.95,0 0,124.3 -301.95,0 z"
         id="path4616" />
    </clipPath>
    <clipPath
       clipPathUnits="userSpaceOnUse"
       id="clipPath4566">
      <path
         inkscape:connector-curvature="0"
         d="m 411.277,6157.27 0,-1449.24 1713.333,0 0,1449.24 -1713.333,0 z"
         id="path4568" />
    </clipPath>
    <clipPath
       clipPathUnits="userSpaceOnUse"
       id="clipPath4554">
      <path
         inkscape:connector-curvature="0"
         d="m 511.434,6052.35 0,-1254 1253.996,0 0,1254 -1253.996,0 z"
         id="path4556" />
    </clipPath>
    <clipPath
       clipPathUnits="userSpaceOnUse"
       id="clipPath4520">
      <path
         inkscape:connector-curvature="0"
         d="m 411.277,6157.27 0,-1449.24 1713.333,0 0,1449.24 -1713.333,0 z"
         id="path4522" />
    </clipPath>
    <clipPath
       clipPathUnits="userSpaceOnUse"
       id="clipPath4486">
      <path
         inkscape:connector-curvature="0"
         d="m 411.277,6157.27 0,-1449.24 1713.333,0 0,1449.24 -1713.333,0 z"
         id="path4488" />
    </clipPath>
    <clipPath
       clipPathUnits="userSpaceOnUse"
       id="clipPath4474">
      <path
         inkscape:connector-curvature="0"
         d="m 511.434,6052.35 0,-1254 1253.996,0 0,1254 -1253.996,0 z"
         id="path4476" />
    </clipPath>
    <clipPath
       clipPathUnits="userSpaceOnUse"
       id="clipPath4460">
      <path
         inkscape:connector-curvature="0"
         d="m 411.277,6157.27 0,-1449.24 1713.333,0 0,1449.24 -1713.333,0 z"
         id="path4462" />
    </clipPath>
    <clipPath
       clipPathUnits="userSpaceOnUse"
       id="clipPath4448">
      <path
         inkscape:connector-curvature="0"
         d="m 511.434,6052.35 0,-1254 1253.996,0 0,1254 -1253.996,0 z"
         id="path4450" />
    </clipPath>
    <clipPath
       clipPathUnits="userSpaceOnUse"
       id="clipPath4434">
      <path
         inkscape:connector-curvature="0"
         d="m 411.277,6157.27 0,-1449.24 1713.333,0 0,1449.24 -1713.333,0 z"
         id="path4436" />
    </clipPath>
    <clipPath
       clipPathUnits="userSpaceOnUse"
       id="clipPath4422">
      <path
         inkscape:connector-curvature="0"
         d="m 511.434,6052.35 0,-1254 1253.996,0 0,1254 -1253.996,0 z"
         id="path4424" />
    </clipPath>
    <clipPath
       clipPathUnits="userSpaceOnUse"
       id="clipPath4408">
      <path
         inkscape:connector-curvature="0"
         d="m 411.277,6157.27 0,-1449.24 1713.333,0 0,1449.24 -1713.333,0 z"
         id="path4410" />
    </clipPath>
    <clipPath
       clipPathUnits="userSpaceOnUse"
       id="clipPath4390">
      <path
         inkscape:connector-curvature="0"
         d="m 511.434,6052.35 0,-1254 1253.996,0 0,1254 -1253.996,0 z"
         id="path4392" />
    </clipPath>
    <clipPath
       clipPathUnits="userSpaceOnUse"
       id="clipPath4380">
      <path
         inkscape:connector-curvature="0"
         d="m 411.277,6157.27 0,-1449.24 1713.333,0 0,1449.24 -1713.333,0 z"
         id="path4382" />
    </clipPath>
    <clipPath
       clipPathUnits="userSpaceOnUse"
       id="clipPath4500">
      <path
         inkscape:connector-curvature="0"
         d="m 511.434,6052.35 0,-1254 1253.996,0 0,1254 -1253.996,0 z"
         id="path4502" />
    </clipPath>
  </defs>
  <sodipodi:namedview
     id="base"
     pagecolor="#ffffff"
     bordercolor="#666666"
     borderopacity="1.0"
     inkscape:pageopacity="0.0"
     inkscape:pageshadow="2"
     inkscape:zoom="2.2862558"
     inkscape:cx="126.79897"
     inkscape:cy="88.936798"
     inkscape:document-units="px"
     inkscape:current-layer="layer1"
     showgrid="false"
     fit-margin-top="0"
     fit-margin-left="0"
     fit-margin-right="0"
     fit-margin-bottom="0"
     inkscape:window-width="1366"
     inkscape:window-height="716"
     inkscape:window-x="-8"
     inkscape:window-y="-8"
     inkscape:window-maximized="1" />
  <metadata
     id="metadata5517">
    <rdf:RDF>
      <cc:Work
         rdf:about="">
        <dc:format>image/svg+xml</dc:format>
        <dc:type
           rdf:resource="http://purl.org/dc/dcmitype/StillImage" />
        <dc:title></dc:title>
      </cc:Work>
    </rdf:RDF>
  </metadata>
  <g
     inkscape:label="Layer 1"
     inkscape:groupmode="layer"
     id="layer1"
     transform="translate(-236.05817,-348.03935)">
    <g
       transform="matrix(0.15,0,0,-0.15,172.66562,1267.2597)"
       id="g4386">
      <g
         id="g4388"
         clip-path="url(#clipPath4390)">
        <path
           inkscape:connector-curvature="0"
           d="m 1765.13,5425.5 -1.49,39.34 -3.57,39.34 -6.26,38.75 -8.64,38.45 -10.73,37.85 -13.41,36.97 -15.8,36.06 -17.88,35.17 -19.97,33.98 -22.05,32.49 -24.14,31.3 -25.93,29.51 -28.02,27.72 -29.51,25.93 -30.99,24.14 -32.79,22.35 -33.68,19.97 -35.17,17.88 -36.06,15.5 -37.26,13.41 -37.86,11.03 -38.15,8.64 -39.05,5.96 -39.04,3.87 -39.35,1.19 -39.64,-1.19 -39.05,-3.87 -39.04,-5.96 -38.155,-8.64 -37.855,-11.03 -37.258,-13.41 -36.066,-15.5 -35.172,-17.88 -33.68,-19.97 -32.785,-22.35 -30.996,-24.14 -29.508,-25.93 -28.016,-27.72 -25.929,-29.51 -24.141,-31.3 -22.055,-32.49 -19.968,-33.98 -17.883,-35.17 -15.797,-36.06 -13.41,-36.97 -10.731,-37.85 -8.64,-38.45 -6.258,-38.75 -3.574,-39.34 -1.192,-39.34 1.192,-39.35 3.574,-39.34 6.258,-38.75 8.64,-38.45 10.731,-37.85 13.41,-36.96 15.797,-36.07 17.883,-35.17 19.968,-33.98 22.055,-32.49 24.141,-31.3 25.929,-29.5 28.016,-27.72 29.508,-25.93 30.996,-24.14 32.785,-22.36 33.68,-19.97 35.172,-17.88 36.066,-15.5 37.258,-13.41 37.855,-11.02 38.155,-8.65 39.04,-5.96 39.05,-3.87 39.64,-1.19 39.35,1.19 39.04,3.87 39.05,5.96 38.15,8.65 37.86,11.02 37.26,13.41 36.06,15.5 35.17,17.88 33.68,19.97 32.79,22.36 30.99,24.14 29.51,25.93 28.02,27.72 25.93,29.5 24.14,31.3 22.05,32.49 19.97,33.98 17.88,35.17 15.8,36.07 13.41,36.96 10.73,37.85 8.64,38.45 6.26,38.75 3.57,39.34 1.49,39.35"
           style="fill:#ffffff;fill-opacity:1;fill-rule:evenodd;stroke:none"
           id="path4394" />
        <path
           inkscape:connector-curvature="0"
           d="m 1760.07,5504.19 -6.26,38.74 -8.64,38.45 -10.73,37.86 -13.41,36.96 -15.8,36.07 -17.88,35.17 -19.97,33.98 -22.06,32.49 -24.14,31.29 -25.93,29.51 -28.01,27.72 -29.51,25.93 -31,24.14 -32.78,22.36 -33.68,19.96 -35.17,17.89 -36.07,15.49 -37.26,13.41 -37.85,11.03 -38.15,8.64 -39.05,5.96 -39.05,3.87 -39.34,1.19 -39.64,-1.19 -39.05,-3.87 -39.05,-5.96 -38.149,-8.64 -37.855,-11.03 -37.258,-13.41 -36.066,-15.49 -35.172,-17.89 -33.68,-19.96 -32.785,-22.36 -30.996,-24.14 -29.508,-25.93 -28.016,-27.72 -25.929,-29.51 -24.141,-31.29 -22.055,-32.49 -19.968,-33.98 -17.883,-35.17 -15.797,-36.07 -13.41,-36.96 -10.731,-37.86 -8.64,-38.45 -6.258,-38.74 -3.574,-39.35 -1.192,-39.34 1.192,-39.34 3.574,-39.35 6.258,-38.74 8.64,-38.45 10.731,-37.86 13.41,-36.96 15.797,-36.07 17.883,-35.17 19.968,-33.98 22.055,-32.49 24.141,-31.29 25.929,-29.51 28.016,-27.72 29.508,-25.93 30.996,-24.14 32.785,-22.36 33.68,-19.96 35.172,-17.89 36.066,-15.49 37.258,-13.41 37.855,-11.03 38.149,-8.64 39.05,-5.96 39.05,-3.87 39.64,-1.19 39.34,1.19 39.05,3.87 39.05,5.96 38.15,8.64 37.85,11.03 37.26,13.41 36.07,15.49 35.17,17.89 33.68,19.96 32.78,22.36 31,24.14 29.51,25.93 28.01,27.72 25.93,29.51 24.14,31.29 22.06,32.49 19.97,33.98 17.88,35.17 15.8,36.07 13.41,36.96 10.73,37.86 8.64,38.45 6.26,38.74 3.57,39.35 1.49,39.34 0,0"
           style="fill:none;stroke:#000000;stroke-width:1.78845;stroke-linecap:butt;stroke-linejoin:round;stroke-miterlimit:10;stroke-opacity:1;stroke-dasharray:none"
           id="path4396" />
        <path
           inkscape:connector-curvature="0"
           d="m 1765.13,5425.5 -1.49,39.34 -3.57,39.34"
           style="fill:none;stroke:#000000;stroke-width:1.78845;stroke-linecap:butt;stroke-linejoin:round;stroke-miterlimit:10;stroke-opacity:1;stroke-dasharray:none"
           id="path4398" />
        <path
           inkscape:connector-curvature="0"
           d="m 1294.47,5435.33 -0.89,9.84 -1.49,9.83 -2.08,9.54 -2.68,9.24 -3.58,9.53 -3.87,8.94 -4.47,8.64 -5.06,8.65 -5.37,8.04 -5.96,7.75 -6.55,7.45 -7.15,6.85 -7.16,6.56 -7.74,5.96 -8.35,5.66 -8.34,5.07 -8.94,4.46 -8.94,3.87 -9.24,3.28 -9.54,2.68 -9.53,2.09 -9.84,1.78 -9.53,0.89 -9.84,0.3 -10.13,-0.3 -9.54,-0.89 -9.83,-1.78 -9.54,-2.09 -9.53,-2.68 -9.24,-3.28 -8.94,-3.87 -8.94,-4.46 -8.35,-5.07 -8.34,-5.66 -7.75,-5.96 -7.15,-6.56 -7.15,-6.85 -6.56,-7.45 -5.96,-7.75 -5.36,-8.04 -5.07,-8.65 -4.466,-8.64 -3.871,-8.94 -3.574,-9.53 -2.68,-9.24 -2.086,-9.54 -1.488,-9.83 -0.89,-9.84 -0.297,-9.83 0.297,-9.84 0.89,-9.84 1.488,-9.83 2.086,-9.54 2.68,-9.24 3.574,-9.53 3.871,-8.94 4.466,-8.64 5.07,-8.64 5.36,-8.05 5.96,-7.75 6.56,-7.45 7.15,-6.85 7.15,-6.56 7.75,-5.96 8.34,-5.66 8.35,-5.06 8.94,-4.47 8.94,-3.87 9.24,-3.28 9.53,-2.68 9.54,-2.09 9.83,-1.78 9.54,-0.89 10.13,-0.3 9.84,0.3 9.53,0.89 9.84,1.78 9.53,2.09 9.54,2.68 9.24,3.28 8.94,3.87 8.94,4.47 8.34,5.06 8.35,5.66 7.74,5.96 7.16,6.56 7.15,6.85 6.55,7.45 5.96,7.75 5.37,8.05 5.06,8.64 4.47,8.64 3.87,8.94 3.58,9.53 2.68,9.24 2.08,9.54 1.49,9.83 0.89,9.84 0.3,9.84"
           style="fill:none;stroke:#000000;stroke-width:3.57690001;stroke-linecap:butt;stroke-linejoin:round;stroke-miterlimit:10;stroke-opacity:1;stroke-dasharray:1.78845, 14.3076;stroke-dashoffset:0"
           id="path4400" />
        <path
           inkscape:connector-curvature="0"
           d="m 1294.77,5425.5 -0.29,9.83"
           style="fill:none;stroke:#000000;stroke-width:3.57690001;stroke-linecap:butt;stroke-linejoin:round;stroke-miterlimit:10;stroke-opacity:1;stroke-dasharray:1.78845, 14.3076;stroke-dashoffset:0"
           id="path4402" />
      </g>
    </g>
    <g
       transform="matrix(0.15,0,0,-0.15,172.66562,1267.2597)"
       id="g4404">
      <g
         id="g4406"
         clip-path="url(#clipPath4408)">
        <g
           id="g4412"
           transform="scale(8.33333,8.33333)">
          <text
             transform="matrix(1,0,0,-1,141.69951,671.591)"
             id="text4414">
            <tspan
               style="font-size:4.2922802px;font-variant:normal;font-weight:normal;writing-mode:lr-tb;fill:#000000;fill-opacity:1;fill-rule:nonzero;stroke:none;font-family:Helvetica;-inkscape-font-specification:Helvetica"
               x="0 2.5066915 4.893199"
               y="0"
               sodipodi:role="line"
               id="tspan4416">−30</tspan>
          </text>
        </g>
      </g>
    </g>
    <g
       transform="matrix(0.15,0,0,-0.15,172.66562,1267.2597)"
       id="g4418">
      <g
         id="g4420"
         clip-path="url(#clipPath4422)">
        <path
           inkscape:connector-curvature="0"
           d="m 1450.96,5445.17 -1.78,19.67 -3.28,19.37 -4.17,19.08 -5.36,19.07 -6.86,18.48 -7.74,18.18 -8.95,17.59 -10.13,16.69 -11.03,16.39 -11.92,15.49 -13.11,14.91 -14.01,14 -14.6,12.82 -15.5,12.22 -16.39,11.03 -16.99,9.83 -17.59,8.94 -17.88,8.05 -18.78,6.56 -18.77,5.36 -19.08,4.47 -19.67,2.98 -19.37,1.78 -19.67,0.6 -19.97,-0.6 -19.37,-1.78 -19.67,-2.98 -19.08,-4.47 -18.78,-5.36 -18.77,-6.56 -17.89,-8.05 -17.581,-8.94 -16.989,-9.83 -16.39,-11.03 -15.496,-12.22 -14.606,-12.82 -14.008,-14 -13.113,-14.91 -11.922,-15.49 -11.027,-16.39 -10.133,-16.69 -8.941,-17.59 -7.746,-18.18 -6.856,-18.48 -5.363,-19.07 -4.172,-19.08 -3.277,-19.37 -1.785,-19.67 -0.594,-19.67 0.594,-19.68 1.785,-19.67 3.277,-19.37 4.172,-19.07 5.363,-19.08 6.856,-18.48 7.746,-18.18 8.941,-17.58 10.133,-16.69 11.027,-16.4 11.922,-15.49 13.113,-14.9 14.008,-14.01 14.606,-12.82 15.496,-12.22 16.39,-11.02 16.989,-9.84 17.581,-8.94 17.89,-8.05 18.77,-6.55 18.78,-5.37 19.08,-4.46 19.67,-2.99 19.37,-1.78 19.97,-0.89 19.67,0.89 19.37,1.78 19.67,2.99 19.08,4.46 18.77,5.37 18.78,6.55 17.88,8.05 17.59,8.94 16.99,9.84 16.39,11.02 15.5,12.22 14.6,12.82 14.01,14.01 13.11,14.9 11.92,15.49 11.03,16.4 10.13,16.69 8.95,17.58 7.74,18.18 6.86,18.48 5.36,19.08 4.17,19.07 3.28,19.37 1.78,19.67 0.6,19.68"
           style="fill:none;stroke:#000000;stroke-width:3.57690001;stroke-linecap:butt;stroke-linejoin:round;stroke-miterlimit:10;stroke-opacity:1;stroke-dasharray:1.78845, 14.3076;stroke-dashoffset:0"
           id="path4426" />
        <path
           inkscape:connector-curvature="0"
           d="m 1451.56,5425.5 -0.6,19.67"
           style="fill:none;stroke:#000000;stroke-width:3.57690001;stroke-linecap:butt;stroke-linejoin:round;stroke-miterlimit:10;stroke-opacity:1;stroke-dasharray:1.78845, 14.3076;stroke-dashoffset:0"
           id="path4428" />
      </g>
    </g>
    <g
       transform="matrix(0.15,0,0,-0.15,172.66562,1267.2597)"
       id="g4430">
      <g
         id="g4432"
         clip-path="url(#clipPath4434)">
        <g
           id="g4438"
           transform="scale(8.33333,8.33333)">
          <text
             transform="matrix(1,0,0,-1,144.30951,690.191)"
             id="text4440">
            <tspan
               style="font-size:4.2922802px;font-variant:normal;font-weight:normal;writing-mode:lr-tb;fill:#000000;fill-opacity:1;fill-rule:nonzero;stroke:none;font-family:Helvetica;-inkscape-font-specification:Helvetica"
               x="0 2.5066915 4.893199"
               y="0"
               sodipodi:role="line"
               id="tspan4442">−20</tspan>
          </text>
        </g>
      </g>
    </g>
    <g
       transform="matrix(0.15,0,0,-0.15,172.66562,1267.2597)"
       id="g4444">
      <g
         id="g4446"
         clip-path="url(#clipPath4448)">
        <path
           inkscape:connector-curvature="0"
           d="m 1607.45,5455 -2.98,29.51 -4.47,29.21 -6.55,28.62 -8.05,28.31 -10.13,28.02 -11.62,27.12 -13.41,26.23 -15.2,25.34 -16.39,24.44 -18.18,23.24 -19.67,22.36 -20.87,20.86 -22.05,19.37 -23.25,18.18 -24.44,16.69 -25.63,14.91 -26.23,13.41 -27.12,11.62 -27.72,10.13 -28.32,8.34 -28.91,6.26 -29.21,4.77 -29.21,2.68 -29.51,0.89 -29.8,-0.89 -29.21,-2.68 -29.21,-4.77 -28.91,-6.26 -28.321,-8.34 -27.719,-10.13 -27.121,-11.62 -26.23,-13.41 -25.633,-14.91 -24.442,-16.69 -23.246,-18.18 -22.054,-19.37 -20.864,-20.86 -19.672,-22.36 -18.179,-23.24 -16.391,-24.44 -15.199,-25.34 -13.41,-26.23 -11.621,-27.12 -10.133,-28.02 -8.047,-28.31 -6.555,-28.62 -4.468,-29.21 -2.981,-29.51 -0.891,-29.5 0.891,-29.51 2.981,-29.51 4.468,-29.21 6.555,-28.61 8.047,-28.32 10.133,-28.02 11.621,-27.12 13.41,-26.23 15.199,-25.33 16.391,-24.44 18.179,-23.25 19.672,-22.36 20.864,-20.86 22.054,-19.37 23.246,-18.18 24.442,-16.69 25.633,-14.9 26.23,-13.41 27.121,-11.63 27.719,-10.13 28.321,-8.34 28.91,-6.26 29.21,-4.77 29.21,-2.67 29.8,-0.9 29.51,0.9 29.21,2.67 29.21,4.77 28.91,6.26 28.32,8.34 27.72,10.13 27.12,11.63 26.23,13.41 25.63,14.9 24.44,16.69 23.25,18.18 22.05,19.37 20.87,20.86 19.67,22.36 18.18,23.25 16.39,24.44 15.2,25.33 13.41,26.23 11.62,27.12 10.13,28.02 8.05,28.32 6.55,28.61 4.47,29.21 2.98,29.51 0.89,29.51"
           style="fill:none;stroke:#000000;stroke-width:3.57690001;stroke-linecap:butt;stroke-linejoin:round;stroke-miterlimit:10;stroke-opacity:1;stroke-dasharray:1.78845, 14.3076;stroke-dashoffset:0"
           id="path4452" />
        <path
           inkscape:connector-curvature="0"
           d="m 1608.35,5425.5 -0.89,29.5"
           style="fill:none;stroke:#000000;stroke-width:3.57690001;stroke-linecap:butt;stroke-linejoin:round;stroke-miterlimit:10;stroke-opacity:1;stroke-dasharray:1.78845, 14.3076;stroke-dashoffset:0"
           id="path4454" />
      </g>
    </g>
    <g
       transform="matrix(0.15,0,0,-0.15,172.66562,1267.2597)"
       id="g4456">
      <g
         id="g4458"
         clip-path="url(#clipPath4460)">
        <g
           id="g4464"
           transform="scale(8.33333,8.33333)">
          <text
             transform="matrix(1,0,0,-1,146.95651,708.826)"
             id="text4466">
            <tspan
               style="font-size:4.2922802px;font-variant:normal;font-weight:normal;writing-mode:lr-tb;fill:#000000;fill-opacity:1;fill-rule:nonzero;stroke:none;font-family:Helvetica;-inkscape-font-specification:Helvetica"
               x="0 2.5066915 4.893199"
               y="0"
               sodipodi:role="line"
               id="tspan4468">−10</tspan>
          </text>
        </g>
      </g>
    </g>
    <g
       transform="matrix(0.15,0,0,-0.15,172.66562,1267.2597)"
       id="g4470">
      <g
         id="g4472"
         clip-path="url(#clipPath4474)">
        <path
           inkscape:connector-curvature="0"
           d="m 1763.64,5464.84 -3.57,39.35 -6.26,38.74 -8.64,38.45 -10.73,37.86 -13.41,36.96 -15.8,36.07 -17.88,35.17 -19.97,33.98 -22.05,32.49 -24.14,31.29 -25.93,29.51 -28.02,27.72 -29.51,25.93 -30.99,24.14 -32.79,22.36 -33.68,19.96 -35.17,17.89 -36.06,15.49 -37.26,13.41 -37.86,11.03 -38.15,8.64 -39.05,5.96 -39.04,3.87 -39.35,1.19 -39.64,-1.19 -39.05,-3.87 -39.04,-5.96 -38.155,-8.64 -37.855,-11.03 -37.258,-13.41 -36.066,-15.49 -35.172,-17.89 -33.68,-19.96 -32.785,-22.36 -30.996,-24.14 -29.508,-25.93 -28.016,-27.72 -25.929,-29.51 -24.141,-31.29 -22.055,-32.49 -19.968,-33.98 -17.883,-35.17 -15.797,-36.07 -13.41,-36.96 -10.731,-37.86 -8.64,-38.45 -6.258,-38.74 -3.574,-39.35 -1.192,-39.34 1.192,-39.34 3.574,-39.35 6.258,-38.74 8.64,-38.45 10.731,-37.86 13.41,-36.96 15.797,-36.07 17.883,-35.17 19.968,-33.98 22.055,-32.49 24.141,-31.29 25.929,-29.51 28.016,-27.72 29.508,-25.93 30.996,-24.14 32.785,-22.36 33.68,-19.96 35.172,-17.89 36.066,-15.49 37.258,-13.41 37.855,-11.03 38.155,-8.64 39.04,-5.96 39.05,-3.87 39.64,-1.19 39.35,1.19 39.04,3.87 39.05,5.96 38.15,8.64 37.86,11.03 37.26,13.41 36.06,15.49 35.17,17.89 33.68,19.96 32.79,22.36 30.99,24.14 29.51,25.93 28.02,27.72 25.93,29.51 24.14,31.29 22.05,32.49 19.97,33.98 17.88,35.17 15.8,36.07 13.41,36.96 10.73,37.86 8.64,38.45 6.26,38.74 3.57,39.35 1.49,39.34"
           style="fill:none;stroke:#000000;stroke-width:3.57690001;stroke-linecap:butt;stroke-linejoin:round;stroke-miterlimit:10;stroke-opacity:1;stroke-dasharray:none"
           id="path4478" />
        <path
           inkscape:connector-curvature="0"
           d="m 1765.13,5425.5 -1.49,39.34"
           style="fill:none;stroke:#000000;stroke-width:3.57690001;stroke-linecap:butt;stroke-linejoin:round;stroke-miterlimit:10;stroke-opacity:1;stroke-dasharray:none"
           id="path4480" />
      </g>
    </g>
    <g
       transform="matrix(0.15,0,0,-0.15,172.66562,1267.2597)"
       id="g4482">
      <g
         id="g4484"
         clip-path="url(#clipPath4486)">
        <g
           id="g4490"
           transform="scale(8.33333,8.33333)">
          <text
             transform="matrix(1,0,0,-1,149.56751,727.462)"
             id="text4492">
            <tspan
               style="font-size:4.2922802px;font-variant:normal;font-weight:normal;writing-mode:lr-tb;fill:#000000;fill-opacity:1;fill-rule:nonzero;stroke:none;font-family:Helvetica;-inkscape-font-specification:Helvetica"
               x="0"
               y="0"
               id="tspan4494">0</tspan>
          </text>
        </g>
      </g>
    </g>
    <g
       transform="matrix(0.15,0,0,-0.15,172.66562,1267.2597)"
       id="g4496">
      <g
         id="g4498"
         clip-path="url(#clipPath4500)">
        <path
           inkscape:connector-curvature="0"
           d="M 595.191,5111.92 1681.07,5738.77"
           style="fill:none;stroke:#000000;stroke-width:3.57690001;stroke-linecap:butt;stroke-linejoin:round;stroke-miterlimit:10;stroke-opacity:1;stroke-dasharray:1.78845, 14.3076;stroke-dashoffset:0"
           id="path4504" />
        <path
           inkscape:connector-curvature="0"
           d="M 824.707,4882.7 1451.55,5968.29"
           style="fill:none;stroke:#000000;stroke-width:3.57690001;stroke-linecap:butt;stroke-linejoin:round;stroke-miterlimit:10;stroke-opacity:1;stroke-dasharray:1.78845, 14.3076;stroke-dashoffset:0"
           id="path4506" />
        <path
           inkscape:connector-curvature="0"
           d="m 1138.28,4798.64 0,1253.7"
           style="fill:none;stroke:#000000;stroke-width:3.57690001;stroke-linecap:butt;stroke-linejoin:round;stroke-miterlimit:10;stroke-opacity:1;stroke-dasharray:1.78845, 14.3076;stroke-dashoffset:0"
           id="path4508" />
        <path
           inkscape:connector-curvature="0"
           d="M 1451.56,4882.7 824.711,5968.29"
           style="fill:none;stroke:#000000;stroke-width:3.57690001;stroke-linecap:butt;stroke-linejoin:round;stroke-miterlimit:10;stroke-opacity:1;stroke-dasharray:1.78845, 14.3076;stroke-dashoffset:0"
           id="path4510" />
        <path
           inkscape:connector-curvature="0"
           d="M 1681.08,5111.92 595.195,5738.77"
           style="fill:none;stroke:#000000;stroke-width:3.57690001;stroke-linecap:butt;stroke-linejoin:round;stroke-miterlimit:10;stroke-opacity:1;stroke-dasharray:1.78845, 14.3076;stroke-dashoffset:0"
           id="path4512" />
        <path
           inkscape:connector-curvature="0"
           d="m 1765.13,5425.5 -1253.696,0"
           style="fill:none;stroke:#000000;stroke-width:3.57690001;stroke-linecap:butt;stroke-linejoin:round;stroke-miterlimit:10;stroke-opacity:1;stroke-dasharray:1.78845, 14.3076;stroke-dashoffset:0"
           id="path4514" />
      </g>
    </g>
    <g
       transform="matrix(0.15,0,0,-0.15,172.66562,1267.2597)"
       id="g4516">
      <g
         id="g4518"
         clip-path="url(#clipPath4520)">
        <g
           id="g4524"
           transform="scale(8.33333,8.33333)">
          <text
             transform="matrix(1,0,0,-1,205.843,690.942)"
             id="text4526">
            <tspan
               style="font-size:4.2922802px;font-variant:normal;font-weight:normal;writing-mode:lr-tb;fill:#000000;fill-opacity:1;fill-rule:nonzero;stroke:none;font-family:Helvetica;-inkscape-font-specification:Helvetica"
               x="0 2.3865077"
               y="0"
               sodipodi:role="line"
               id="tspan4528">30</tspan>
            <tspan
               style="font-size:4.2922802px;font-variant:normal;font-weight:normal;writing-mode:lr-tb;fill:#000000;fill-opacity:1;fill-rule:nonzero;stroke:none;font-family:Helvetica;-inkscape-font-specification:Helvetica"
               x="-144.507 -142.1205 -139.73398"
               y="82.769501"
               sodipodi:role="line"
               id="tspan4530">210</tspan>
            <tspan
               style="font-size:4.2922802px;font-variant:normal;font-weight:normal;writing-mode:lr-tb;fill:#000000;fill-opacity:1;fill-rule:nonzero;stroke:none;font-family:Helvetica;-inkscape-font-specification:Helvetica"
               x="-30.297001 -27.910492"
               y="-30.2605"
               sodipodi:role="line"
               id="tspan4532">60</tspan>
            <tspan
               style="font-size:4.2922802px;font-variant:normal;font-weight:normal;writing-mode:lr-tb;fill:#000000;fill-opacity:1;fill-rule:nonzero;stroke:none;font-family:Helvetica;-inkscape-font-specification:Helvetica"
               x="-114.2112 -111.82469 -109.43819"
               y="113.0295"
               sodipodi:role="line"
               id="tspan4534">240</tspan>
            <tspan
               style="font-size:4.2922802px;font-variant:normal;font-weight:normal;writing-mode:lr-tb;fill:#000000;fill-opacity:1;fill-rule:nonzero;stroke:none;font-family:Helvetica;-inkscape-font-specification:Helvetica"
               x="-71.645897 -69.259392"
               y="-41.349499"
               sodipodi:role="line"
               id="tspan4536">90</tspan>
            <tspan
               style="font-size:4.2922802px;font-variant:normal;font-weight:normal;writing-mode:lr-tb;fill:#000000;fill-opacity:1;fill-rule:nonzero;stroke:none;font-family:Helvetica;-inkscape-font-specification:Helvetica"
               x="-72.82621 -70.439705 -68.053192"
               y="124.1175"
               sodipodi:role="line"
               id="tspan4538">270</tspan>
            <tspan
               style="font-size:4.2922802px;font-variant:normal;font-weight:normal;writing-mode:lr-tb;fill:#000000;fill-opacity:1;fill-rule:nonzero;stroke:none;font-family:Helvetica;-inkscape-font-specification:Helvetica"
               x="-114.21121 -111.8247 -109.43819"
               y="-30.261499"
               sodipodi:role="line"
               id="tspan4540">120</tspan>
            <tspan
               style="font-size:4.2922802px;font-variant:normal;font-weight:normal;writing-mode:lr-tb;fill:#000000;fill-opacity:1;fill-rule:nonzero;stroke:none;font-family:Helvetica;-inkscape-font-specification:Helvetica"
               x="-31.47731 -29.090803 -26.704294"
               y="113.0285"
               sodipodi:role="line"
               id="tspan4542">300</tspan>
            <tspan
               style="font-size:4.2922802px;font-variant:normal;font-weight:normal;writing-mode:lr-tb;fill:#000000;fill-opacity:1;fill-rule:nonzero;stroke:none;font-family:Helvetica;-inkscape-font-specification:Helvetica"
               x="-144.50731 -142.1208 -139.7343"
               y="-0.0015"
               sodipodi:role="line"
               id="tspan4544">150</tspan>
            <tspan
               style="font-size:4.2922802px;font-variant:normal;font-weight:normal;writing-mode:lr-tb;fill:#000000;fill-opacity:1;fill-rule:nonzero;stroke:none;font-family:Helvetica;-inkscape-font-specification:Helvetica"
               x="-1.1813101 1.2051977 3.5917053"
               y="82.767998"
               sodipodi:role="line"
               id="tspan4546">330</tspan>
            <tspan
               style="font-size:4.2922802px;font-variant:normal;font-weight:normal;writing-mode:lr-tb;fill:#000000;fill-opacity:1;fill-rule:nonzero;stroke:none;font-family:Helvetica;-inkscape-font-specification:Helvetica"
               x="-155.59631 -153.20981 -150.82329 12.30369"
               y="41.383499"
               sodipodi:role="line"
               id="tspan4548">1800</tspan>
          </text>
        </g>
      </g>
    </g>
    <g
       transform="matrix(0.15,0,0,-0.15,172.66562,1267.2597)"
       id="g4550">
      <g
         id="g4552"
         clip-path="url(#clipPath4554)">
        <path
           inkscape:connector-curvature="0"
           d="m 1138.28,5425.5 0,-626.85 21.76,0.59 21.76,1.49 21.75,2.38 21.47,3.58 21.46,4.47 21.16,5.36 20.56,6.55 20.57,7.45 19.97,8.35 19.67,9.24 19.07,10.13 18.48,10.73 17.89,11.92 16.99,12.52 16.69,13.41 15.79,14.3 14.91,14.9 14.3,15.5 13.41,16.09 12.22,16.69 11.62,17.29 10.43,17.88 9.54,18.18 8.34,18.48 7.45,19.08 5.96,19.37 5.07,19.67 3.87,19.67 2.38,19.97 1.19,19.97 -0.3,19.97 -1.78,19.97 -3.57,19.97 -5.07,19.96 -7.15,19.38 -8.94,19.37 -11.63,19.07 -14.3,18.48 -17.88,17.88 -22.36,16.99 -28.32,16.39 -38.15,14.91 -54.24,13.71 -93.89,11.02 -128.18,4.47 128.18,4.47 93.89,11.03 54.24,13.71 38.15,14.9 28.32,16.39 22.36,16.99 17.88,17.88 14.3,18.48 11.63,19.08 8.94,19.37 7.15,19.37 5.07,19.97 3.57,19.97 1.78,19.97 0.3,19.97 -1.19,19.96 -2.38,19.97 -3.87,19.67 -5.07,19.68 -5.96,19.37 -7.45,19.07 -8.34,18.48 -9.54,18.18 -10.43,17.88 -11.62,17.29 -12.22,16.69 -13.41,16.1 -14.3,15.49 -14.91,14.9 -15.79,14.31 -16.69,13.41 -16.99,12.51 -17.89,11.93 -18.48,10.73 -19.07,10.13 -19.67,9.24 -19.97,8.34 -20.57,7.45 -20.56,6.56 -21.16,5.36 -21.46,4.47 -21.47,3.57 -21.75,2.38 -21.76,1.49 -21.76,0.6"
           style="fill:none;stroke:#0000ff;stroke-width:7.15379;stroke-linecap:butt;stroke-linejoin:round;stroke-miterlimit:10;stroke-opacity:1;stroke-dasharray:none"
           id="path4558" />
        <path
           inkscape:connector-curvature="0"
           d="m 1138.28,5425.5 5.07,-150.23 11.92,-93.89 14.3,-53.95 15.8,-37.55 16.99,-28.02 17.59,-21.76 18.48,-17.28 19.07,-13.71 19.37,-10.73 19.67,-8.35 19.97,-5.96 19.97,-4.47 20.27,-2.38 20.26,-0.89 19.97,0.89 19.97,2.08 19.97,3.28 19.67,4.77 19.37,5.96 19.08,6.85 18.77,8.35 18.18,8.94 17.89,10.43 17.58,11.03 16.69,12.22 16.39,13.11 15.8,13.71 15.2,14.6 14.3,15.5 14.01,16.39 12.82,16.69 12.22,17.59 11.62,18.18 10.73,18.78 9.83,19.07 8.95,19.67 8.04,20.27 7.15,20.56 6.26,20.57 5.37,21.16 4.17,21.46 3.57,21.76 2.38,21.46 1.49,22.05 0.6,21.76 -0.6,21.76 -1.49,22.06 -2.38,21.46 -3.57,21.75 -4.17,21.46 -5.37,21.17 -6.26,20.56 -7.15,20.57 -8.04,20.26 -8.95,19.68 -9.83,19.07 -10.73,18.78 -11.62,18.18 -12.22,17.58 -12.82,16.69 -14.01,16.39 -14.3,15.5 -15.2,14.61 -15.8,13.71 -16.39,13.11 -16.69,12.22 -17.58,11.03 -17.89,10.43 -18.18,8.94 -18.77,8.34 -19.08,6.86 -19.37,5.96 -19.67,4.76 -19.97,3.28 -19.97,2.09 -19.97,0.89 -20.26,-0.89 -20.27,-2.39 -19.97,-4.46 -19.97,-5.97 -19.67,-8.34 -19.37,-10.73 -19.07,-13.71 -18.48,-17.29 -17.59,-21.75 -16.99,-28.02 -15.8,-37.55 -14.3,-53.95 -11.92,-93.89 -5.07,-150.23"
           style="fill:none;stroke:#ff0000;stroke-width:7.15379;stroke-linecap:butt;stroke-linejoin:round;stroke-miterlimit:10;stroke-opacity:1;stroke-dasharray:1.78845, 14.3076, 21.4614, 14.3076;stroke-dashoffset:0"
           id="path4560" />
      </g>
    </g>
    <g
       transform="matrix(0.15,0,0,-0.15,172.66562,1267.2597)"
       id="g4562">
      <g
         id="g4564"
         clip-path="url(#clipPath4566)">
        <g
           id="g4570"
           transform="scale(8.33333,8.33333)" />
        <path
           inkscape:connector-curvature="0"
           d="m 1808.06,5928.35 301.648,0 0,123.996 -301.648,0 0,-123.996 z"
           style="fill:#ffffff;fill-opacity:1;fill-rule:evenodd;stroke:none"
           id="path4572" />
        <path
           inkscape:connector-curvature="0"
           d="m 1808.06,5928.35 301.648,0 0,123.996 -301.648,0 0,-123.996 z"
           style="fill:none;stroke:#ffffff;stroke-width:1.78845;stroke-linecap:butt;stroke-linejoin:round;stroke-miterlimit:10;stroke-opacity:1;stroke-dasharray:none"
           id="path4574" />
        <path
           inkscape:connector-curvature="0"
           d="m 1808.06,6052.35 301.65,0"
           style="fill:none;stroke:#000000;stroke-width:1.78845;stroke-linecap:butt;stroke-linejoin:round;stroke-miterlimit:10;stroke-opacity:1;stroke-dasharray:none"
           id="path4576" />
        <path
           inkscape:connector-curvature="0"
           d="m 1808.06,5928.35 301.65,0"
           style="fill:none;stroke:#000000;stroke-width:1.78845;stroke-linecap:butt;stroke-linejoin:round;stroke-miterlimit:10;stroke-opacity:1;stroke-dasharray:none"
           id="path4578" />
        <path
           inkscape:connector-curvature="0"
           d="m 2109.71,5928.35 0,124"
           style="fill:none;stroke:#000000;stroke-width:1.78845;stroke-linecap:butt;stroke-linejoin:round;stroke-miterlimit:10;stroke-opacity:1;stroke-dasharray:none"
           id="path4580" />
        <path
           inkscape:connector-curvature="0"
           d="m 1808.06,5928.35 0,124"
           style="fill:none;stroke:#000000;stroke-width:1.78845;stroke-linecap:butt;stroke-linejoin:round;stroke-miterlimit:10;stroke-opacity:1;stroke-dasharray:none"
           id="path4582" />
        <path
           inkscape:connector-curvature="0"
           d="m 1808.06,5928.35 301.65,0"
           style="fill:none;stroke:#000000;stroke-width:1.78845;stroke-linecap:butt;stroke-linejoin:round;stroke-miterlimit:10;stroke-opacity:1;stroke-dasharray:none"
           id="path4584" />
        <path
           inkscape:connector-curvature="0"
           d="m 1808.06,5928.35 0,124"
           style="fill:none;stroke:#000000;stroke-width:1.78845;stroke-linecap:butt;stroke-linejoin:round;stroke-miterlimit:10;stroke-opacity:1;stroke-dasharray:none"
           id="path4586" />
        <path
           inkscape:connector-curvature="0"
           d="m 1808.06,6052.35 301.65,0"
           style="fill:none;stroke:#000000;stroke-width:1.78845;stroke-linecap:butt;stroke-linejoin:round;stroke-miterlimit:10;stroke-opacity:1;stroke-dasharray:none"
           id="path4588" />
        <path
           inkscape:connector-curvature="0"
           d="m 1808.06,5928.35 301.65,0"
           style="fill:none;stroke:#000000;stroke-width:1.78845;stroke-linecap:butt;stroke-linejoin:round;stroke-miterlimit:10;stroke-opacity:1;stroke-dasharray:none"
           id="path4590" />
        <path
           inkscape:connector-curvature="0"
           d="m 2109.71,5928.35 0,124"
           style="fill:none;stroke:#000000;stroke-width:1.78845;stroke-linecap:butt;stroke-linejoin:round;stroke-miterlimit:10;stroke-opacity:1;stroke-dasharray:none"
           id="path4592" />
        <path
           inkscape:connector-curvature="0"
           d="m 1808.06,5928.35 0,124"
           style="fill:none;stroke:#000000;stroke-width:1.78845;stroke-linecap:butt;stroke-linejoin:round;stroke-miterlimit:10;stroke-opacity:1;stroke-dasharray:none"
           id="path4594" />
        <g
           id="g4596"
           transform="scale(8.33333,8.33333)">
          <text
             transform="matrix(1,0,0,-1,233.206,719.951)"
             id="text4598">
            <tspan
               style="font-size:4.2922802px;font-variant:normal;font-weight:bold;writing-mode:lr-tb;fill:#000000;fill-opacity:1;fill-rule:nonzero;stroke:none;font-family:Helvetica;-inkscape-font-specification:Helvetica-Bold"
               x="0"
               y="0"
               id="tspan4600">0</tspan>
          </text>
          <text
             transform="matrix(1,0,0,-1,235.56662,722.09694)"
             id="text4602">
            <tspan
               style="font-size:3.43382001px;font-variant:normal;font-weight:bold;writing-mode:lr-tb;fill:#000000;fill-opacity:1;fill-rule:nonzero;stroke:none;font-family:Helvetica;-inkscape-font-specification:Helvetica-Bold"
               x="0 1.1434621"
               y="0"
               sodipodi:role="line"
               id="tspan4604">th</tspan>
          </text>
          <text
             transform="matrix(1,0,0,-1,239.97924,719.951)"
             id="text4606">
            <tspan
               style="font-size:4.2922802px;font-variant:normal;font-weight:bold;writing-mode:lr-tb;fill:#000000;fill-opacity:1;fill-rule:nonzero;stroke:none;font-family:Helvetica;-inkscape-font-specification:Helvetica-Bold"
               x="0 3.8158369 6.4384198 9.0610027"
               y="0"
               sodipodi:role="line"
               id="tspan4608">mode</tspan>
          </text>
        </g>
      </g>
    </g>
    <g
       transform="matrix(0.15,0,0,-0.15,172.66562,1267.2597)"
       id="g4610">
      <g
         id="g4612"
         clip-path="url(#clipPath4614)">
        <path
           inkscape:connector-curvature="0"
           d="m 1828.63,6018.66 104.02,0"
           style="fill:none;stroke:#0000ff;stroke-width:7.15379;stroke-linecap:butt;stroke-linejoin:round;stroke-miterlimit:10;stroke-opacity:1;stroke-dasharray:none"
           id="path4618" />
      </g>
    </g>
    <g
       transform="matrix(0.15,0,0,-0.15,172.66562,1267.2597)"
       id="g4620">
      <g
         id="g4622"
         clip-path="url(#clipPath4624)">
        <g
           id="g4628"
           transform="scale(8.33333,8.33333)">
          <text
             transform="matrix(1,0,0,-1,233.206,713.19)"
             id="text4630">
            <tspan
               style="font-size:4.2922802px;font-variant:normal;font-weight:bold;writing-mode:lr-tb;fill:#000000;fill-opacity:1;fill-rule:nonzero;stroke:none;font-family:Helvetica;-inkscape-font-specification:Helvetica-Bold"
               x="0"
               y="0"
               id="tspan4632">1</tspan>
          </text>
          <text
             transform="matrix(1,0,0,-1,235.56662,715.33594)"
             id="text4634">
            <tspan
               style="font-size:3.43382001px;font-variant:normal;font-weight:bold;writing-mode:lr-tb;fill:#000000;fill-opacity:1;fill-rule:nonzero;stroke:none;font-family:Helvetica;-inkscape-font-specification:Helvetica-Bold"
               x="0 1.9092039"
               y="0"
               sodipodi:role="line"
               id="tspan4636">st</tspan>
          </text>
          <text
             transform="matrix(1,0,0,-1,239.80018,713.19)"
             id="text4638">
            <tspan
               style="font-size:4.2922802px;font-variant:normal;font-weight:bold;writing-mode:lr-tb;fill:#000000;fill-opacity:1;fill-rule:nonzero;stroke:none;font-family:Helvetica;-inkscape-font-specification:Helvetica-Bold"
               x="0 3.8158369 6.4384198 9.0610027"
               y="0"
               sodipodi:role="line"
               id="tspan4640">mode</tspan>
          </text>
        </g>
      </g>
    </g>
    <g
       transform="matrix(0.15,0,0,-0.15,172.66562,1267.2597)"
       id="g4642">
      <g
         id="g4644"
         clip-path="url(#clipPath4646)">
        <path
           inkscape:connector-curvature="0"
           d="m 1828.63,5962.33 104.02,0"
           style="fill:none;stroke:#ff0000;stroke-width:7.15379;stroke-linecap:butt;stroke-linejoin:round;stroke-miterlimit:10;stroke-opacity:1;stroke-dasharray:1.78845, 14.3076, 21.4614, 14.3076;stroke-dashoffset:0"
           id="path4650" />
      </g>
    </g>
  </g>
</svg>
